<svg xmlns="http://www.w3.org/2000/svg" fill="none" viewBox="0 0 464 65" height="65" width="464">
<path fill="#F8F3E7" d="M437.923 59.1518V39.2033L417.086 7.70044V7.50293H423.011L440.589 34.5618L458.069 7.50293H463.895V7.70044L443.256 39.2033V59.1518H437.923Z"></path>
<path fill="#F8F3E7" d="M390.487 60.0397C374.094 60.0397 363.823 48.4854 363.823 33.2771C363.823 18.0689 374.292 6.61328 390.487 6.61328C406.683 6.61328 417.052 18.0689 417.052 33.2771C417.052 48.4854 406.782 60.0397 390.487 60.0397ZM390.487 55.2007C404.017 55.2007 411.72 45.819 411.72 33.2771C411.72 20.9328 403.918 11.4523 390.487 11.4523C377.057 11.4523 369.156 20.9328 369.156 33.2771C369.156 45.819 376.859 55.2007 390.487 55.2007Z"></path>
<path fill="#F8F3E7" d="M330.233 7.50293H335.566V54.3128H361.341V59.1518H330.233V7.50293Z"></path>
<path fill="#F8F3E7" d="M293.903 37.6232V59.1518H288.571V7.50293H308.025C318.691 7.50293 324.814 12.5394 324.814 22.5137C324.814 31.5991 318.592 37.6232 308.124 37.6232H293.903ZM293.903 12.4407V32.7842H307.63C315.333 32.7842 319.382 29.624 319.382 22.6124C319.382 15.5021 315.926 12.4407 307.433 12.4407H293.903Z"></path>
<path fill="#F8F3E7" d="M251.952 59.1518H246.619V7.50293H281.183V12.5394H251.952V30.4141H278.122V35.0556H251.952V54.214H281.282V59.1518H251.952Z"></path>
<path fill="#F8F3E7" d="M194.638 59.1518V7.50293H213.895C231.473 7.50293 240.756 17.7734 240.756 33.0805C240.756 48.585 231.276 59.1518 214.389 59.1518H194.638ZM199.97 54.3128H213.895C228.807 54.3128 235.424 46.2149 235.424 33.0805C235.424 20.0448 228.214 12.3419 213.302 12.3419H199.97V54.3128Z"></path>
<path fill="#F8F3E7" d="M158.608 30.5127H188.432V35.8455H158.608V30.5127Z"></path>
<path fill="#F8F3E7" d="M125.752 12.5394V7.50293H167.328V12.5394H149.256V59.1518H143.824V12.5394H125.752Z"></path>
<path fill="#F8F3E7" d="M84.4988 12.5394V7.50293H126.075V12.5394H108.002V59.1518H102.571V12.5394H84.4988Z"></path>
<g clip-path="url(#clip0_2187_35)">
<path fill="#F8522F" d="M31.8143 46.0272L15.9531 36.7666V55.1949L31.8143 64.3627L47.7682 55.1949V36.7666L31.8143 46.0272Z"></path>
<path fill="#F8522F" d="M15.9559 0.000976562L0.00195312 9.16874V27.5971L15.9559 36.7648V18.4293L31.8171 27.5971L47.771 18.4293L15.9559 0.000976562Z"></path>
<path fill="#F8522F" d="M47.7825 0.000976562V36.7648L63.6436 27.5971V9.16874L47.7825 0.000976562Z"></path>
</g>
<defs>
<clipPath id="clip0_2187_35">
<rect fill="white" height="64.3533" width="63.6302"></rect>
</clipPath>
</defs>
</svg>
